<svg xmlns:rdf="http://www.w3.org/1999/02/22-rdf-syntax-ns#" xmlns="http://www.w3.org/2000/svg" height="32" width="32" version="1.1" xmlns:cc="http://creativecommons.org/ns#" xmlns:dc="http://purl.org/dc/elements/1.1/" viewBox="0 0 32 32.000001">
 <g transform="translate(67.265 -1048.2)">
  <rect fill-opacity="0" height="32" width="32" y="1048.2" x="-67.265"/>
  <g transform="matrix(.62893 0 0 .62893 -71.17 1044.3)">
   <g fill-rule="evenodd" clip-rule="evenodd">
    <path d="m32.456 6.295h-0.72c-2.291 1.749-0.523 4.653-0.48 8.64 4.265 1.311 3.107-6.842 1.2-8.64z"/>
    <path d="m19.255 20.695c1.408 0.124 1.162-0.892 2.16-0.96-1.021-3.298-3.968-4.672-6.48-6.48-3.212 2.497 2.751 5.27 4.32 7.44z"/>
    <path d="m42.535 38.455c-0.497-1.616 1.544-2.644 0.48-4.319 0.627 0.067 1.032-0.088 0.96-0.721 0.125-3.369-0.343-6.865-3.36-8.64 0.099-0.409 0.31 0.05 0.72 0-1.887-3.134-5.906-4.658-10.319-4.56-4.977 0.657-8.875 3.927-10.32 8.64-1.018 3.319 0.359 6.709 1.2 9.6-2.906 0.481-10.68-1.347-13.2 1.44-0.054 0.454 0.271 0.529 0.24 0.96 12.917 0.521 27.203 0.24 41.28 0.24 1.44 0 3.832 0.673 4.8-0.96v-0.48c-2.906-1.687-8.993-0.564-11.521-1.439 0.776 0.276-0.644 0.271-0.96 0.239zm-4.559 0.24c-2.843 0.677-5.799-0.011-8.4 0-0.959 0.004-1.956 0.482-2.88 0.24-1.753-0.461-3.359-3.443-3.6-5.28-0.408-3.113 1.391-5.024 2.16-6.96 0.501-0.102 0.636 0.165 0.96 0.24 0.01-1.616 3.038-1.79 4.08-3.12v-0.48c0.204-0.044 0.227 0.094 0.24 0.24 2.288 0.71 4.675 0.457 6.24 1.44 4.262 2.681 4.62 8.756 1.2 13.68z"/>
    <path d="m13.976 30.055c0.098 0.866-0.438 0.329-0.24-0.24-1.63 0.257-4.781 0.061-6.96 0.96-0.333 0.147-0.036 0.924-0.48 0.96v0.48c0.422 0.218 0.439 0.841 0.72 1.2 1.978-0.016 5.029-0.403 7.68-0.479 0.929-1.185 0.018-2.117-0.72-2.881z"/>
    <path d="m32.936 51.655c-0.356 0.704 0.271 0.892-0.48 1.2-0.331-0.011-0.527 0.113-0.72 0.24-1.961-1.708-4.08-5.038-6.72-4.561-1.821 3.967 4.121 5.735 6.72 8.641h0.48c1.037-1.034 2.354-1.819 3.36-2.881 1.291-1.361 3.033-2.825 3.36-5.039-2.979-0.894-4.22 3.398-6 2.4z"/>
    <path d="m47.335 19.976c0.886-2.134 3.711-3.135 3.12-6-2.036-1.483-2.491 0.158-3.359 1.44-1.034 1.526-4.008 2.848-3.36 4.32 1.724 1.529 2.715-0.569 3.599 0.24z"/>
    <path d="m56.936 31.496c-2.33-1.956-8.992-2.846-8.4 1.44 0.683 1.261 2.521 0.425 4.32 0.24 1.524-0.157 4.628 0.641 4.08-1.68z"/>
   </g>
  </g>
 </g>
</svg>
