<svg xmlns:rdf="http://www.w3.org/1999/02/22-rdf-syntax-ns#" xmlns="http://www.w3.org/2000/svg" height="32" width="32" version="1.1" xmlns:cc="http://creativecommons.org/ns#" xmlns:dc="http://purl.org/dc/elements/1.1/" viewBox="0 0 32 32.000001">
 <g transform="translate(-18.85 -1040.2)">
  <rect fill-opacity="0" height="32" width="32" y="1040.2" x="18.85"/>
  <g transform="matrix(.62419 0 0 .62419 15.13 1036.2)">
   <g clip-rule="evenodd" fill-rule="evenodd">
    <path d="m6.273 31.485v0.72c0.357 0.204 0.347 0.773 0.48 1.2 2.116 0.693 3.347-0.548 5.76-0.239 0.138-0.502 0.595-0.686 0.48-1.44-1.275-1.768-5.439-2.823-6.72-0.241z"/>
    <path d="m44.434 44.685c-1.229 2.456 2.845 6.308 5.52 5.521 0.197-3.204-3.58-5.791-5.52-5.521z"/>
    <path d="m13.233 49.005c0.106 0.763 0.992 1.693 1.92 1.68 1.555-0.023 1.64-1.684 2.16-2.399 0.584-0.805 1.766-1.007 1.68-2.16-0.125-0.355-0.355-0.605-0.48-0.96-2.447-0.008-5.595 1.581-5.28 3.839z"/>
    <path d="m34.354 11.805c-0.574-1.436-0.332-3.233-0.96-5.04-0.427-0.133-0.997-0.123-1.2-0.48h-0.48c-0.158 0.322-0.513 0.447-0.96 0.48-0.109 2.684 0.182 2.91 0.24 5.76 1.896 1.335 2.498-0.221 3.36-0.72z"/>
    <path d="m18.753 19.245c0.803-3.103-2.54-3.976-3.84-5.76-0.107-0.009-1.033 0.548-1.2 0.24 0.133 0.001 0.272-0.194 0-0.24-2.189 2.568 2.327 5.896 5.04 5.76z"/>
    <path d="m49.474 13.965c-1.314-0.266-2.148 1.201-2.88 0.72 0.408 0.054 0.594-0.271 0-0.24-0.749 1.113-2.714 2.033-2.16 3.84 1.252 4.086 6.75-2.821 5.04-4.32z"/>
    <path d="m33.394 19.005c-3.107-0.302-6.094 0.242-8.64 1.44 0.001-0.133-0.194-0.272-0.24 0 0.196 0.593-1.594 1.469-2.4 1.2-1.015 2.532-3.946 4.16-3.36 8.4-0.241 0.001-0.286-0.194-0.48-0.24-2.358 11.181 12.045 20.06 21.12 13.68 1.221-1.881 2.76-2.717 3.84-4.319 5.181-7.69-0.491-19.253-9.84-20.161zm-6.241 22.559c-0.067-0.388 0.227-0.413 0.24-0.72-0.911 0.791-1.372-1.039-1.92-0.48-0.336-0.084-0.021-0.422 0.24-0.479-0.701-0.442-0.494-1.401-2.16-1.68 0.149-1.466-0.915-3.219-1.92-4.32 0.684-1.056 0.313-4.329 0.72-5.76 3.134-7.29 12.445-8.288 18.24-3.12 6.867 9.263-3.647 22.483-13.44 16.559z"/>
    <path d="m50.913 30.525c-2.324 3.748 3.758 3.366 6 2.16v-1.2c-1.947-1.287-3.002-2.271-6-0.96z"/>
    <path d="m30.273 51.404c-0.692 0.923-0.154 4.298 0.48 6 1.235 0.24 1.925 0.256 2.64-0.479-0.325-1.718 0.081-4.434-0.96-6-1.219-0.172-1.84 0.398-2.16 0.479z"/>
   </g>
  </g>
 </g>
</svg>
