<svg xmlns:rdf="http://www.w3.org/1999/02/22-rdf-syntax-ns#" xmlns="http://www.w3.org/2000/svg" height="32" width="32" version="1.1" xmlns:cc="http://creativecommons.org/ns#" xmlns:dc="http://purl.org/dc/elements/1.1/" viewBox="0 0 32 32.000001">
 <g transform="translate(0 -1020.4)">
  <path d="m16 1026.4c0.553 0 1-0.448 1-1v-4c0-0.552-0.447-1-1-1s-1 0.448-1 1v4c0 0.552 0.447 1 1 1zm11.313-1.313c-0.39-0.391-1.023-0.391-1.414 0l-2.828 2.828c-0.391 0.391-0.391 1.024 0 1.414 0.39 0.391 1.023 0.391 1.414 0l2.828-2.828c0.391-0.391 0.391-1.024 0-1.414zm-18.384 4.242c0.391-0.39 0.391-1.023 0-1.414l-2.828-2.828c-0.391-0.391-1.024-0.391-1.414 0-0.391 0.39-0.391 1.023 0 1.414l2.828 2.828c0.39 0.39 1.024 0.39 1.414 0zm22.071 6.1h-4c-0.553 0-1 0.448-1 1s0.447 1 1 1h4c0.553 0 1-0.448 1-1s-0.447-1-1-1zm-26 0h-4c-0.553 0-1 0.448-1 1s0.447 1 1 1h4c0.553 0 1-0.448 1-1s-0.447-1-1-1zm11-7c-4.418 0-8 3.582-8 8 0 0.552 0.447 1 1 1s1-0.448 1-1c0-3.313 2.687-6 6-6s6 2.687 6 6c0 0.552 0.447 1 1 1s1-0.448 1-1c0-4.418-3.582-8-8-8zm-1 23.43c0.316 0.316 0.578 0.57 1 0.57s0.684-0.254 1-0.57l2.703-2.7271c0.18-0.18 0.297-0.484 0.297-0.703 0-0.5-0.391-0.9999-1-0.9999-0.203 0-0.57 0.133-0.719 0.281l-1.281 1.2969v-8.5779c0-0.553-0.447-1-1-1s-1 0.447-1 1v8.5779l-1.281-1.2969c-0.149-0.148-0.516-0.281-0.719-0.281-0.609 0-1 0.4999-1 0.9999 0 0.219 0.117 0.523 0.297 0.703l2.703 2.7271z"/>
 </g>
</svg>
