<svg xmlns:rdf="http://www.w3.org/1999/02/22-rdf-syntax-ns#" xmlns="http://www.w3.org/2000/svg" height="32" width="32" version="1.1" xmlns:cc="http://creativecommons.org/ns#" xmlns:dc="http://purl.org/dc/elements/1.1/" viewBox="0 0 32 32.000001">
 <rect fill-opacity="0" height="32" width="32" y="-.040012" x=".0000048828"/>
 <path d="m15.597 16.36c-1.713-1.712-2.228-4.268-1.313-6.5108 0.152-0.3745 0.066-0.8042-0.22-1.0902-0.286-0.2861-0.716-0.3726-1.091-0.2199-0.98882 0.40338-1.8756 0.99313-2.6355 1.7531-1.5128 1.5128-2.3459 3.5242-2.3459 5.6636s0.83316 4.1508 2.3459 5.6634c1.5616 1.5617 3.6121 2.3423 5.6635 2.3421 2.0508-0.000196 4.1022-0.78085 5.6635-2.3421 0.75984-0.75965 1.3497-1.6465 1.7531-2.6354 0.15271-0.37452 0.06615-0.80421-0.22004-1.0902-0.2858-0.286-0.71568-0.37276-1.09-0.22004-2.243 0.91452-4.7989 0.39925-6.5112-1.313zm4.647 3.8373c-2.3395 2.3392-6.1455 2.339-8.4845 0.000196-1.1332-1.1332-1.7572-2.6397-1.7572-4.2422s0.62401-3.1092 1.7572-4.2422c0.02699-0.02709 0.05437-0.05389 0.08185-0.08038-0.1379 2.249 0.67956 4.4938 2.3343 6.1485 1.6548 1.6549 3.8981 2.4733 6.1486 2.3343-0.02651 0.02748-0.0532 0.05496-0.08029 0.08185z"/>
</svg>
