<svg xmlns:rdf="http://www.w3.org/1999/02/22-rdf-syntax-ns#" xmlns="http://www.w3.org/2000/svg" height="32" width="32" version="1.1" xmlns:cc="http://creativecommons.org/ns#" xmlns:dc="http://purl.org/dc/elements/1.1/" viewBox="0 0 32 32.000001">
 <g transform="translate(0 -1020.4)">
  <g transform="translate(-302.38 488.56)">
   <rect fill-opacity="0" height="32" width="32" y="531.8" x="302.38"/>
   <g transform="matrix(.18961 0 0 .18948 308.9 538.32)">
    <path d="m50 92.244c23.331 0 42.244-18.913 42.244-42.244s-18.913-42.244-42.244-42.244-42.244 18.913-42.244 42.244 18.913 42.244 42.244 42.244zm21.275-32.661c3.2772 0 5.9339 2.6567 5.9339 5.9339s-2.6567 5.9339-5.9339 5.9339-5.9338-2.6567-5.9338-5.9339 2.6567-5.9339 5.9338-5.9339zm-28.227-30.338c3.8394 0 6.9519 3.1125 6.9519 6.952 0 3.8394-3.1125 6.9519-6.9519 6.9519-3.8395 0-6.952-3.1125-6.952-6.9519 0-3.8395 3.1125-6.952 6.952-6.952zm-3.4254 24.775c5.5949 0 10.13 4.5355 10.13 10.13 0 5.5948-4.5355 10.13-10.13 10.13-5.5948 0-10.13-4.5355-10.13-10.13-0.001-5.594 4.535-10.13 10.13-10.13zm-22.395-9.257c0-3.2772 2.6567-5.9339 5.9339-5.9339s5.9339 2.6567 5.9339 5.9339-2.6567 5.9339-5.9339 5.9339-5.9339-2.6567-5.9339-5.9339z"/>
   </g>
  </g>
 </g>
</svg>
