<svg xmlns:rdf="http://www.w3.org/1999/02/22-rdf-syntax-ns#" xmlns="http://www.w3.org/2000/svg" height="32" width="32" version="1.1" xmlns:cc="http://creativecommons.org/ns#" xmlns:dc="http://purl.org/dc/elements/1.1/" viewBox="0 0 32 32.000001">
 <g transform="translate(-136.13 -990.81)">
  <rect fill-opacity="0" height="32" width="32" y="990.81" x="136.13"/>
  <path d="m157.46 1010.8c-0.5996-0.2592-1.4964-0.2633-2.3478-0.294-0.10068-0.3285 0.30407-0.152 0.48873-0.1951-0.73085 0.029-1.0223-0.7137-1.7605-0.3914 0.35871-0.3121-0.46916-0.4129-1.0765-0.4891 0.18343-0.1862 0.0106-0.2458 0-0.4891-1.5844-0.6542-2.2431-2.2427-3.3261-2.9348 0.0428-0.1451 0.12513 0.039 0.29348 0-0.9045-1.5702-0.95871-2.8929-1.0761-4.9893-0.0232-0.4104 0.0163-0.77 0.19566-1.5653 0.0884-0.3933 0.11209-0.94684 0.19564-1.1738 0.14349-0.39095 0.62651-0.97097-0.0978-1.4675h-0.48914c-3.3803 1.8502-5.352 4.2776-6.1631 8.2176v2.3478c1.0394 5.1071 4.2767 8.8208 10.174 9.3915h0.29349c3.3216-0.3351 6.2349-1.6626 8.0222-4.0109 0.53887-0.7085 1.244-1.6342 1.1739-2.6414-1.5636 0.1524-2.6487 0.6546-4.5001 0.6848zm-6.5544 4.8914c-0.63914-0.4044-1.3553-0.7317-2.25-0.8805-0.11047-0.3073 0.0281-0.2584-0.0978-0.4891-0.40353 0.4495-1.1083-0.6713-1.4674-0.587 0.34159-0.1972-0.32975-0.7691-0.88044-0.88 0.37664-0.1443-0.36562-0.6326-0.58696-0.5869-0.51767-1.2351-1.2628-2.6398-1.9566-3.8154-0.0167-0.4125 0.15041 0 0.29349 0-0.7757-4.0386 0.65381-7.5396 3.5218-9.2937-0.21237 0.3213-0.22174 0.75341-0.0978 1.174-0.0791-0.019-0.0974-0.098-0.19566-0.098 0.005 1.2116-0.0452 3.0201 0.29348 4.2067 0.41169 1.4433 1.2909 2.663 2.1522 3.8153 0.33709 0.4509 1.0031 0.7818 1.3696 1.2717 0.0338 0.045 0.38316 0.3212 0.48914 0.3914 2.1868 1.4452 5.987 2.548 9.0979 1.3691-1.3655 2.8635-5.1461 5.0168-9.6849 4.4022z" fill-rule="evenodd" clip-rule="evenodd"/>
 </g>
</svg>
