<svg xmlns:rdf="http://www.w3.org/1999/02/22-rdf-syntax-ns#" xmlns="http://www.w3.org/2000/svg" height="32" width="32" version="1.1" xmlns:cc="http://creativecommons.org/ns#" xmlns:dc="http://purl.org/dc/elements/1.1/" viewBox="0 0 32 32.000001">
 <g transform="translate(-40.64 -1020.4)">
  <circle cx="-772.87" transform="rotate(225)" cy="-692.77" r="16" fill="none"/>
  <path d="m-772.87-708.77a16 16 0 0 1 14.782 9.8771 16 16 0 0 1 -3.4684 17.437 16 16 0 0 1 -17.437 3.4684 16 16 0 0 1 -9.8771 -14.782h16z" transform="rotate(225)"/>
  <g fill="#fff">
   <path d="m41.28 1036.3c0.0051-0.7334 0.31072-1.48 0.728-2.2284 0.63072-1.1188 1.5472-2.2356 2.3094-3.0855 0.76224-0.8483 1.3696-1.424 1.3763-1.4304 0.18496-0.1753 0.47488-0.1753 0.66016 0 0.0086 0.01 1.0858 1.0282 2.1738 2.3594 0.544 0.6662 1.0912 1.4096 1.512 2.1561 0.41792 0.7485 0.7232 1.4951 0.728 2.2285-0.00032 2.4586-1.8694 4.4787-4.2637 4.7194v1.8803c0 0.265-0.21504 0.48-0.48 0.48s-0.48-0.215-0.48-0.48v-1.88c-2.3949-0.2403-4.2637-2.2608-4.264-4.7194zm4.2637 3.7501v-2.3625l-1.3626-1.3626c-0.18752-0.1875-0.18752-0.4915 0-0.6787 0.18752-0.1875 0.49152-0.1875 0.67872 0l0.68384 0.6835v-2.448c0-0.265 0.21504-0.48 0.48-0.48s0.48 0.215 0.48 0.48v2.448l0.68352-0.6835c0.18752-0.1875 0.49152-0.1875 0.67872 0 0.18752 0.1872 0.18752 0.4912 0 0.6787l-1.3622 1.3626v2.3625c0.8528-0.1081 1.6163-0.496 2.1955-1.0742 0.68544-0.6864 1.1078-1.6291 1.1082-2.6755 0.0051-0.4442-0.2224-1.0861-0.60448-1.7575-0.56832-1.0115-1.4506-2.096-2.1875-2.9145-0.368-0.4103-0.70048-0.7556-0.93984-0.9975-0.01952-0.02-0.03392-0.034-0.05216-0.053-0.41024 0.4128-1.1437 1.1789-1.8582 2.0653-0.50432 0.6259-0.99776 1.3123-1.3562 1.9622-0.36128 0.6484-0.57376 1.2644-0.56928 1.6948 0.00032 1.0467 0.42272 1.9894 1.1082 2.6755 0.57952 0.5779 1.343 0.9657 2.1958 1.0739z"/>
   <path d="m51.798 1029 0.96288-0.5536-1.009-0.5277c-0.23488-0.1229-0.32576-0.4128-0.20288-0.6477s0.4128-0.3257 0.64768-0.2029l1.5504 0.8109 1.9302-1.1107-1.9299-1.1107-1.5504 0.8112c-0.23456 0.1229-0.5248 0.032-0.64768-0.2029-0.12288-0.2346-0.032-0.5248 0.20288-0.6477l1.009-0.5277-0.95808-0.5513c-0.22976-0.1322-0.3088-0.4256-0.17696-0.6554 0.13248-0.2301 0.4256-0.3088 0.65568-0.1769l0.95776 0.5513-0.05088-1.1379c-0.01152-0.2646 0.1936-0.489 0.45856-0.5008 0.26464-0.012 0.48896 0.1933 0.5008 0.4586v-0.0004l0.07776 1.7479 1.9318 1.1117v-2.2314l-1.4758-0.9395c-0.22368-0.1424-0.2896-0.4391-0.14752-0.6627 0.1424-0.2237 0.43904-0.2893 0.6624-0.1472h0.00032l0.96064 0.6115v-1.1053c0-0.2653 0.21504-0.48 0.48-0.48 0.26528 0 0.48 0.2147 0.48 0.48v1.105l0.96032-0.6112c0.22368-0.1421 0.52064-0.077 0.66272 0.1472 0.14208 0.2236 0.07648 0.5206-0.1472 0.6627l-1.4758 0.9398v2.2333l1.9357-1.1136 0.0784-1.7485c0.01184-0.2646 0.23616-0.4701 0.5008-0.4582 0.26464 0.012 0.46976 0.2361 0.45792 0.5011l-0.05056 1.1376 0.95776-0.5514c0.22976-0.1318 0.52352-0.053 0.65536 0.177 0.13248 0.2298 0.05312 0.5232-0.17664 0.6554l-0.95808 0.5513 1.009 0.5277c0.23488 0.1229 0.32576 0.4128 0.20288 0.6477s-0.4128 0.3257-0.64768 0.2029l-1.5504-0.8109-1.9296 1.1104 1.9299 1.1104 1.5501-0.8106c0.23488-0.1229 0.52512-0.032 0.64768 0.2029 0.12256 0.2352 0.03232 0.5251-0.20288 0.6477l-1.0086 0.5273 0.96288 0.554c0.22976 0.1318 0.30912 0.4256 0.17664 0.6553-0.13184 0.2298-0.4256 0.3088-0.65536 0.1767l-0.96288-0.554 0.05056 1.138c0.01184 0.2649-0.19328 0.4892-0.45792 0.5011-0.26464 0.012-0.48896-0.1933-0.5008-0.4583l-0.0784-1.7484-1.9357-1.1133v2.2313l1.4758 0.9392c0.22368 0.1421 0.28928 0.4391 0.1472 0.6628-0.14208 0.2233-0.43904 0.2892-0.66272 0.1472l-0.96032-0.6109v1.1104c0 0.2649-0.21472 0.48-0.48 0.48-0.26496 0-0.48-0.2151-0.48-0.48v-1.1107l-0.96096 0.6112c-0.22336 0.142-0.52 0.076-0.6624-0.1472-0.14208-0.2237-0.07616-0.5207 0.14752-0.6628l1.4758-0.9392v-2.2291l-1.9318 1.1117-0.07776 1.7478c-0.01184 0.2647-0.23616 0.4701-0.5008 0.4586-0.26464-0.012-0.47008-0.2362-0.45856-0.5008l0.05088-1.1379-0.96288 0.5536c-0.23008 0.1321-0.5232 0.053-0.65568-0.1767-0.13152-0.2297-0.05248-0.5235 0.17696-0.6553z"/>
   <g transform="matrix(-0.32 0 0 0.32 74.019 1020.6)">
    <path d="m40.207 42.796c-1.77-1.77-4.1-2.656-6.414-2.654-0.045 0-0.09 0.008-0.135 0.008 0-0.045 0.008-0.09 0.008-0.135 0.002-2.314-0.885-4.645-2.654-6.412-1.769-1.77-4.102-2.663-6.422-2.662-2.32-0.001-4.655 0.89-6.426 2.663-1.77 1.767-2.655 4.097-2.653 6.411 0 0.045 0.008 0.091 0.009 0.137-0.045-0.001-0.09-0.009-0.135-0.009-2.314-0.001-4.646 0.884-6.415 2.654-1.772 1.771-2.663 4.106-2.661 6.427-0.001 2.32 0.893 4.651 2.662 6.421 1.768 1.77 4.098 2.655 6.412 2.653 0.046 0 0.091-0.008 0.137-0.008-0.001 0.045-0.009 0.09-0.009 0.135-0.002 2.314 0.884 4.645 2.653 6.413 1.77 1.771 4.103 2.663 6.422 2.661 2.32 0.002 4.654-0.89 6.426-2.661 1.77-1.769 2.656-4.099 2.654-6.413 0-0.045-0.008-0.09-0.009-0.135 0.045 0 0.09 0.008 0.136 0.008 2.314 0.001 4.645-0.885 6.412-2.653 1.773-1.772 2.664-4.108 2.662-6.429 0.002-2.319-0.89-4.651-2.66-6.42zm-2.123 10.728c-1.188 1.187-2.73 1.772-4.291 1.773-0.502 0.001-1.004-0.061-1.492-0.183-0.51-0.128-1.052 0.022-1.424 0.395-0.372 0.371-0.522 0.913-0.395 1.424 0.121 0.488 0.184 0.99 0.184 1.492-0.002 1.561-0.588 3.103-1.775 4.292-1.193 1.191-2.742 1.78-4.305 1.782-1.561-0.001-3.108-0.592-4.3-1.782-1.188-1.189-1.773-2.731-1.775-4.292 0-0.501 0.062-1.002 0.183-1.491 0.128-0.511-0.021-1.052-0.394-1.424s-0.913-0.522-1.424-0.396c-0.49 0.123-0.992 0.185-1.493 0.184-1.561-0.001-3.102-0.586-4.291-1.774-1.191-1.193-1.781-2.74-1.783-4.3 0.002-1.563 0.591-3.113 1.783-4.306 1.189-1.188 2.731-1.773 4.293-1.774 0.501-0.001 1.002 0.061 1.491 0.183 0.511 0.128 1.052-0.022 1.424-0.395s0.522-0.914 0.395-1.425c-0.122-0.489-0.184-0.99-0.184-1.492 0.002-1.561 0.587-3.102 1.774-4.289 1.193-1.193 2.742-1.783 4.305-1.785 1.561 0.002 3.108 0.593 4.301 1.784 1.188 1.188 1.773 2.729 1.775 4.29 0 0.502-0.062 1.004-0.184 1.492-0.128 0.511 0.023 1.054 0.395 1.426 0.373 0.371 0.916 0.521 1.426 0.393 0.488-0.122 0.989-0.184 1.49-0.184 1.561 0.002 3.103 0.588 4.293 1.776 1.189 1.191 1.779 2.737 1.781 4.298-0.002 1.565-0.591 3.115-1.783 4.308z"/>
    <path d="m24.589 42.302c-1.766-0.001-3.546 0.679-4.892 2.027-1.349 1.348-2.028 3.126-2.026 4.892-0.002 1.765 0.679 3.544 2.025 4.891 1.347 1.348 3.126 2.028 4.892 2.026 1.766 0.002 3.545-0.679 4.892-2.026 1.349-1.347 2.028-3.127 2.026-4.893 0.002-1.766-0.678-3.544-2.025-4.89-1.347-1.348-3.127-2.028-4.892-2.027zm2.769 9.689c-0.77 0.769-1.763 1.146-2.771 1.147-1.007-0.001-2.001-0.379-2.77-1.147-0.768-0.769-1.146-1.763-1.147-2.77 0.001-1.008 0.38-2.002 1.147-2.771 0.769-0.768 1.763-1.146 2.771-1.148 1.008 0.002 2.001 0.38 2.771 1.148 0.768 0.768 1.146 1.762 1.146 2.769 0 1.008-0.378 2.002-1.147 2.772l1.061 1.061-1.061-1.061z"/>
   </g>
  </g>
  <path d="m51.04 1045.2 0.94688 0.0004c0.05184-0.505 0.18688-0.9847 0.38624-1.4292l-0.82304-0.4755c-0.22976-0.1324-0.30816-0.4262-0.17568-0.6556 0.13248-0.2298 0.42624-0.3082 0.65568-0.1757l0.82464 0.4761c0.29152-0.4016 0.64416-0.7542 1.0461-1.0457l-0.47616-0.8253c-0.13248-0.2298-0.05344-0.5232 0.17632-0.6557 0.22944-0.1321 0.5232-0.053 0.65568 0.176l0.47456 0.8234c0.44448-0.1991 0.92416-0.3344 1.4291-0.3859v-0.9466c0-0.2653 0.21504-0.48 0.48-0.48s0.48 0.2147 0.48 0.48v0.9466c0.50496 0.052 0.98464 0.1868 1.4294 0.3859l0.47488-0.8227c0.13248-0.2298 0.42592-0.3082 0.65568-0.1757 0.22944 0.1325 0.30816 0.4259 0.17568 0.6557l-0.47584 0.8246c0.4016 0.2912 0.75456 0.6442 1.0461 1.0461l0.824-0.4759c0.22976-0.1328 0.5232-0.054 0.65568 0.1757 0.1328 0.2298 0.05408 0.5232-0.17568 0.6557l-0.82272 0.4749c0.19936 0.4448 0.3344 0.9241 0.38624 1.4291h0.94624c0.26496 0 0.48 0.215 0.48 0.48 0 0.2653-0.21504 0.48-0.48 0.48h-0.94688c-0.05152 0.5056-0.18688 0.9849-0.38624 1.4301l0.8224 0.4745c0.22976 0.1325 0.30816 0.4259 0.17568 0.6557s-0.42624 0.3082-0.65568 0.1757l-0.82368-0.4759c-0.2912 0.402-0.64448 0.7546-1.0461 1.0461l0.4752 0.8237c0.13248 0.2298 0.05376 0.5232-0.17568 0.6557-0.22976 0.1325-0.5232 0.054-0.65568-0.176l-0.47424-0.8218c-0.4448 0.1994-0.92448 0.3347-1.4298 0.3863v0.9459c0 0.2653-0.21504 0.48-0.48 0.48-0.26528 0-0.48-0.2151-0.48-0.48l0.00032-0.9463c-0.50528-0.052-0.98464-0.1868-1.4298-0.3862l-0.47424 0.8221c-0.1328 0.2297-0.42624 0.3081-0.656 0.1757-0.22976-0.1325-0.30848-0.426-0.17568-0.6557l0.47584-0.824c-0.4016-0.2912-0.75456-0.6445-1.0461-1.0464l-0.82432 0.4755c-0.22944 0.1325-0.5232 0.054-0.65568-0.1757-0.13248-0.2301-0.05376-0.5235 0.17632-0.6557l0.8224-0.4745c-0.19904-0.4448-0.33408-0.9242-0.3856-1.4295l-0.94752-0.0003c-0.26496 0-0.47968-0.215-0.47968-0.48 0.00032-0.2653 0.21504-0.4797 0.48032-0.4797zm2.9712 3.1095c0.67424 0.6733 1.6006 1.0886 2.6288 1.0889 1.0282-0.0003 1.9542-0.4156 2.6288-1.0889 0.67328-0.6743 1.0883-1.601 1.0886-2.6288-0.00032-1.0282-0.41536-1.9546-1.0886-2.6288-0.67424-0.6736-1.6006-1.0886-2.6288-1.089-1.0282 0.0004-1.9542 0.4154-2.6288 1.089-0.67328 0.6739-1.0883 1.6006-1.0886 2.6288 0.00032 1.0278 0.41536 1.9545 1.0886 2.6288z"/>
 </g>
</svg>
