<svg xmlns:rdf="http://www.w3.org/1999/02/22-rdf-syntax-ns#" xmlns="http://www.w3.org/2000/svg" height="32" width="32" version="1.1" xmlns:cc="http://creativecommons.org/ns#" xmlns:dc="http://purl.org/dc/elements/1.1/" viewBox="0 0 32 32.000001">
 <g transform="translate(0 -1020.4)">
  <path d="m16 1026.4c0.552 0 1-0.448 1-1v-4c0-0.552-0.448-1-1-1s-1 0.448-1 1v4c0 0.552 0.448 1 1 1zm0 20c-0.552 0-1 0.447-1 1v4c0 0.553 0.448 1 1 1s1-0.447 1-1v-4c0-0.553-0.448-1-1-1zm8.485-17.071 2.828-2.828c0.391-0.391 0.391-1.024 0-1.414-0.39-0.391-1.023-0.391-1.414 0l-2.828 2.828c-0.391 0.391-0.391 1.024 0 1.414 0.39 0.39 1.024 0.39 1.414 0zm-16.97 14.142-2.828 2.828c-0.391 0.391-0.391 1.024 0 1.414 0.39 0.3909 1.023 0.3909 1.414 0l2.828-2.828c0.391-0.391 0.391-1.024 0-1.414-0.39-0.39-1.024-0.39-1.414 0zm0-14.142c0.391 0.391 1.024 0.391 1.414 0 0.391-0.39 0.391-1.023 0-1.414l-2.828-2.828c-0.391-0.391-1.024-0.391-1.414 0-0.391 0.39-0.391 1.023 0 1.414l2.828 2.828zm16.97 14.1c-0.391-0.391-1.024-0.391-1.414 0-0.391 0.39-0.391 1.023 0 1.414l2.828 2.828c0.391 0.3909 1.024 0.3909 1.414 0 0.391-0.39 0.391-1.023 0-1.414l-2.828-2.828zm6.515-8.071h-4c-0.553 0-1 0.448-1 1s0.447 1 1 1h4c0.553 0 1-0.448 1-1s-0.447-1-1-1zm-25 1c0-0.552-0.448-1-1-1h-4c-0.552 0-1 0.448-1 1s0.448 1 1 1h4c0.552 0 1-0.448 1-1zm10-8c-4.418 0-8 3.582-8 8s3.582 8 8 8 8-3.582 8-8-3.582-8-8-8zm0 14c-3.313 0-6-2.687-6-6s2.687-6 6-6 6 2.687 6 6-2.687 6-6 6z"/>
 </g>
</svg>
